Coordinates
version=1
nRows=9
nColumns=36
inDegrees=yes

Units are S.I. units (second, meters, Newtons, ...)
If the header above contains a line with 'inDegrees', this indicates whether rotational values are in degrees (yes) or radians (no).

endheader
time	pelvis_tilt	pelvis_list	pelvis_rotation	pelvis_tx	pelvis_ty	pelvis_tz	hip_flexion_r	hip_adduction_r	hip_rotation_r	knee_angle_r	knee_angle_r_beta	ankle_angle_r	subtalar_angle_r	mtp_angle_r	hip_flexion_l	hip_adduction_l	hip_rotation_l	knee_angle_l	knee_angle_l_beta	ankle_angle_l	subtalar_angle_l	mtp_angle_l	lumbar_extension	lumbar_bending	lumbar_rotation	arm_flex_r	arm_add_r	arm_rot_r	elbow_flex_r	pro_sup_r	arm_flex_l	arm_add_l	arm_rot_l	elbow_flex_l	pro_sup_l
      2.23333330	     -9.44747843	     -0.69948928	    -12.92686757	      0.65681294	      0.82814604	      0.10470095	     40.81521980	     10.63916127	     -2.10441036	     62.32890860	      1.08784467	     34.54930085	     -0.62951856	     -7.49988399	     67.85641778	    -11.18590585	      4.76720170	     34.04555962	      0.59420711	      2.89741308	      1.83671092	     -7.49988399	    -21.91873583	     12.15320487	      6.28610053	     56.58544946	     -5.35338264	     78.07833129	    115.16194657	     93.83599778	     43.28873671	      5.05002416	     58.07979372	    118.43605743	    104.58854299
      2.25000000	     -9.75765029	     -0.99999095	    -13.16604485	      0.65686296	      0.82451706	      0.10468197	     41.97712536	     11.12143351	     -2.18022194	     63.80214794	      1.11355755	     35.13801238	     -0.85018485	     -7.49988619	     68.93658619	    -11.31140022	      5.25288335	     34.06856079	      0.59460856	      2.66642056	      2.13245450	     -7.49988619	    -22.64212549	     12.58153187	      6.47992506	     56.74161145	     -5.31088822	     78.77050497	    114.76391439	     94.01995180	     43.82354613	      4.75605275	     58.93486371	    117.52973449	    104.79026403
      2.26666670	    -10.55520961	     -1.10586638	    -13.24645235	      0.65726159	      0.81034363	      0.10410489	     43.88156795	     11.45958392	     -2.41845929	     65.76677962	      1.14784684	     36.27789347	     -0.83455061	     -7.49988818	     70.90658227	    -11.39609608	      5.78299670	     34.76606732	      0.60678234	      2.69252023	      2.23230449	     -7.49988818	    -22.08920829	     12.71795470	      7.64104070	     56.66780757	     -5.31976668	     78.30741867	    115.17107497	     94.60785178	     41.87819730	      4.63519961	     58.98358151	    118.36139784	    105.49369244
      2.28333330	    -11.55736968	     -1.02217311	    -13.44520005	      0.65761530	      0.80091689	      0.10408491	     45.94940056	     11.64881985	     -2.60862957	     67.82361078	      1.18374532	     37.63952852	     -0.55633497	     -7.49989274	     73.05360132	    -11.44488712	      6.38012358	     35.87807937	      0.62619061	      2.87446499	      2.14235417	     -7.49989274	    -21.21531886	     12.76818335	      8.26831869	     55.74562647	     -5.91088219	     77.56708521	    115.07908381	     94.48142051	     38.61303351	      4.20143636	     58.75546622	    119.87876773	    105.81767897
      2.30000000	    -12.02625045	     -1.24479751	    -13.48351336	      0.65744705	      0.79543364	      0.10400755	     47.28194778	     12.01744668	     -2.82909900	     69.49216422	      1.21286707	     38.52663515	     -0.61789277	     -7.49989731	     74.51871554	    -11.53659966	      6.97982580	     36.43613086	      0.63593045	      2.90201405	      2.05055666	     -7.49989731	    -21.20151835	     13.11120479	      8.80720098	     56.03870005	     -6.04762211	     77.73060000	    114.31101808	     94.26392551	     37.90263106	      4.46057377	     58.85609592	    120.29146027	    105.94711678
      2.31666670	    -12.43477203	     -1.57278816	    -13.66923964	      0.66272864	      0.79026275	      0.10766930	     48.07264150	     12.61677364	     -3.00589886	     70.63655281	      1.23284042	     39.35475239	     -0.74063541	     -7.49989917	     75.51910876	    -11.77408346	      7.75327819	     36.72831554	      0.64103003	      3.03842528	      1.92711862	     -7.49989917	    -21.18611479	     13.34568446	      9.20482352	     55.97627409	     -5.66122747	     78.14402789	    113.59751232	     94.36112702	     37.21334602	      4.31974456	     58.78243926	    119.57729949	    106.03160291
      2.33333330	    -12.70432800	     -1.87588904	    -13.82040371	      0.65576581	      0.78953216	      0.10959371	     48.75413598	     13.20699848	     -3.10214593	     71.43335916	      1.24674731	     39.56946775	     -1.42850741	     -7.49990137	     76.13827636	    -12.07658563	      8.30512853	     36.79939745	      0.64227065	      2.77015492	      2.20643482	     -7.49990137	    -21.75498313	     13.50834924	      9.19468610	     57.04195285	     -4.99013491	     78.82902212	    112.68389806	     94.48209998	     39.50720530	      4.52493447	     59.19695763	    118.26893420	    106.10404606
      2.35000000	    -13.17728943	     -2.05809954	    -13.97993503	      0.65549395	      0.78324713	      0.10904021	     49.62983351	     13.60980121	     -3.26787495	     72.19269489	      1.26000022	     40.03817523	     -1.50416245	     -7.49990317	     77.03727848	    -12.39699988	      8.91964075	     37.17912179	      0.64889809	      2.41728239	      2.05718660	     -7.49990317	    -21.67491448	     13.45935833	      9.80782463	     56.67821977	     -4.94167372	     78.21303452	    112.64893157	     94.44786227	     38.11887691	      3.73332352	     59.21470204	    118.62431795	    106.00897028
      2.36666670	    -13.83929105	     -2.15341160	    -14.12145790	      0.65595490	      0.78075527	      0.10929374	     50.64569585	     13.84965271	     -3.43310820	     72.82338976	      1.27100792	     40.46387508	     -1.37621915	     -7.49990716	     77.98541282	    -12.65933550	      9.44644241	     37.38560465	      0.65250189	      1.89155294	      2.08502985	     -7.49990716	    -21.33147598	     13.49925946	     10.15062233	     56.36577005	     -5.02579104	     77.94826373	    112.89320128	     93.97568175	     36.63580679	      3.23930343	     59.29917354	    119.14130013	    105.44408118
